<?xml version="1.0" standalone="no"?>
<!DOCTYPE svg PUBLIC "-//W3C//DTD SVG 20010904//EN"
 "http://www.w3.org/TR/2001/REC-SVG-20010904/DTD/svg10.dtd">
<svg version="1.0" xmlns="http://www.w3.org/2000/svg"
 width="512.000000pt" height="512.000000pt" viewBox="0 0 512.000000 512.000000"
 preserveAspectRatio="xMidYMid meet">
<metadata>
Created by potrace 1.14, written by Peter Selinger 2001-2017
</metadata>
<g transform="translate(0.000000,512.000000) scale(0.100000,-0.100000)"
fill="#000000" stroke="none">
<path d="M377 5105 c-173 -47 -316 -193 -362 -366 -22 -81 -22 -4277 0 -4358
46 -176 190 -320 366 -366 81 -22 4277 -22 4358 0 176 46 320 190 366 366 22
81 22 4277 0 4358 -46 176 -190 320 -366 366 -77 21 -4287 21 -4362 0z m1267
-1917 c3 -24 10 -90 16 -148 6 -58 15 -121 19 -140 l7 -35 75 3 c76 4 175 -15
232 -44 45 -24 109 -86 124 -121 19 -46 16 -113 -6 -149 -24 -40 -76 -64 -165
-76 -122 -17 -199 2 -250 62 -31 38 -43 80 -51 185 -6 71 -24 197 -56 382 -16
89 -8 113 42 122 4 0 9 -18 13 -41z m-215 -24 c29 -37 26 -46 -10 -42 -35 3
-56 26 -46 52 9 24 33 20 56 -10z m-377 -79 c8 -19 6 -67 -12 -215 -35 -294
-30 -307 127 -321 151 -14 163 -17 163 -40 0 -26 -37 -39 -115 -39 -194 0
-265 68 -250 243 24 291 42 397 65 397 6 0 15 -11 22 -25z m1865 -45 c119 -53
223 -242 223 -402 0 -54 -19 -47 -67 22 -54 77 -127 120 -205 120 -108 0 -218
-63 -218 -124 0 -37 36 -73 92 -92 52 -17 138 -16 332 2 63 6 68 5 64 -12 -4
-22 -69 -48 -170 -69 -106 -23 -230 0 -308 55 -37 27 -65 97 -56 145 9 49 67
110 124 132 58 22 156 22 231 -1 67 -20 61 -20 61 4 0 55 -58 133 -124 167
-28 14 -75 14 -123 -2 -19 -6 -23 -4 -23 13 0 58 86 79 167 42z m-411 -55 c31
-13 64 -58 52 -71 -3 -3 -42 4 -86 15 -96 25 -124 26 -162 6 -70 -36 -77 -100
-26 -262 44 -143 48 -169 31 -183 -19 -16 -32 -6 -51 38 -41 96 -93 377 -77
418 3 9 13 14 24 11 10 -3 56 8 101 24 88 31 127 32 194 4z m982 14 c53 -13
92 -43 92 -71 0 -20 2 -20 -111 8 -79 19 -111 18 -149 -8 -59 -40 -62 -102
-11 -262 43 -133 46 -159 25 -181 -18 -17 -19 -16 -42 33 -36 80 -72 238 -79
346 -6 98 -6 99 15 94 12 -3 59 7 104 23 95 33 94 33 156 18z m-2020 -11 c7
-7 12 -33 12 -59 0 -25 11 -107 25 -180 40 -208 37 -290 -10 -276 -29 9 -64
234 -65 413 0 113 7 133 38 102z m2622 -7 c16 -30 39 -161 55 -311 34 -309 6
-578 -72 -703 -36 -57 -77 -79 -139 -73 -92 8 -224 88 -259 157 -16 29 -20 89
-7 89 4 0 32 -25 62 -56 85 -87 146 -124 201 -124 55 0 90 24 118 78 35 69 64
278 59 421 -4 125 -10 129 -116 77 -68 -33 -86 -38 -126 -34 -119 14 -215 150
-239 339 -8 66 -8 94 1 113 6 14 16 26 21 26 5 0 14 -37 21 -82 33 -229 103
-338 216 -338 58 0 127 37 165 90 23 30 23 37 20 190 -1 88 0 160 3 160 3 0
10 -9 16 -19z"/>
<path d="M1732 2792 c-22 -22 -38 -97 -28 -135 15 -63 92 -115 180 -124 96
-10 204 58 189 118 -19 78 -131 148 -253 157 -59 4 -70 2 -88 -16z"/>
</g>
</svg>
